<?xml version="1.0" encoding="UTF-8" standalone="no"?>
<!-- Created with Inkscape (http://www.inkscape.org/) -->

<svg
   xmlns:dc="http://purl.org/dc/elements/1.1/"
   xmlns:cc="http://creativecommons.org/ns#"
   xmlns:rdf="http://www.w3.org/1999/02/22-rdf-syntax-ns#"
   xmlns:svg="http://www.w3.org/2000/svg"
   xmlns="http://www.w3.org/2000/svg"
   xmlns:sodipodi="http://sodipodi.sourceforge.net/DTD/sodipodi-0.dtd"
   xmlns:inkscape="http://www.inkscape.org/namespaces/inkscape"
   width="20"
   height="20"
   id="svg2"
   version="1.1"
   inkscape:version="0.48.2 r9819"
   sodipodi:docname="rss.svg">
  <defs
     id="defs4" />
  <sodipodi:namedview
     id="base"
     pagecolor="#ffffff"
     bordercolor="#666666"
     borderopacity="1.0"
     inkscape:pageopacity="0.0"
     inkscape:pageshadow="2"
     inkscape:zoom="21.243342"
     inkscape:cx="17.471616"
     inkscape:cy="11.271751"
     inkscape:document-units="px"
     inkscape:current-layer="layer1"
     showgrid="false"
     inkscape:window-width="1440"
     inkscape:window-height="790"
     inkscape:window-x="0"
     inkscape:window-y="0"
     inkscape:window-maximized="1" />
  <metadata
     id="metadata7">
    <rdf:RDF>
      <cc:Work
         rdf:about="">
        <dc:format>image/svg+xml</dc:format>
        <dc:type
           rdf:resource="http://purl.org/dc/dcmitype/StillImage" />
        <dc:title></dc:title>
      </cc:Work>
    </rdf:RDF>
  </metadata>
  <g
     inkscape:label="Layer 1"
     inkscape:groupmode="layer"
     id="layer1"
     transform="translate(0,-1032.3622)">
    <path
       style="fill:#444444;fill-opacity:1"
       d="m 0.81228671,1032.6119 c -0.0510246,0 -0.0958103,0.01 -0.13741348,0.01 l -0.47109724,0.036 -0.026174,1.6226 c -0.0142769,0.8925 0.015998,1.6879 0.0687073,1.7699 0.067754,0.1054 0.42824817,0.1726 1.2333633,0.2258 1.3368899,0.088 2.5657935,0.3225 3.8014812,0.7262 4.4789819,1.4631 8.2480722,5.0161 9.9355742,9.3663 0.651484,1.6795 1.048923,3.5437 1.053424,4.94 0.0012,0.3552 0.03048,0.7202 0.06543,0.8113 0.0544,0.1418 0.314189,0.1669 1.796052,0.1669 l 1.730633,0 -0.05889,-1.3871 c -0.355363,-8.5051 -6.818805,-16.0241 -15.3597321,-17.8624 -1.1004408,-0.2369 -2.8667723,-0.4382 -3.63136294,-0.4221 z m -0.32061823,6.5233 c -0.0703921,0 -0.12299829,0.01 -0.15047857,0.013 -0.17295572,0.055 -0.18975806,0.2038 -0.18975806,1.5672 0,0.8271 0.0452797,1.6221 0.10142174,1.7698 0.0910579,0.2395 0.15832003,0.2716 0.63139567,0.2716 0.29178734,0 0.89423684,0.072 1.33805204,0.1635 4.0094649,0.8262 7.1546873,4.3143 7.5081045,8.326 0.037556,0.4259 0.085392,0.8342 0.1079643,0.9062 0.030651,0.098 0.4803199,0.1308 1.7731579,0.1308 l 1.730622,0 0,-0.6019 c -0.0011,-1.4889 -0.52543,-3.5634 -1.311869,-5.2083 -1.199173,-2.5081 -3.4282787,-4.7499 -5.980316,-6.0097 -0.8443737,-0.4169 -2.109824,-0.8633 -2.9967007,-1.0567 -0.6458323,-0.1409 -2.06852449,-0.2842 -2.56159582,-0.2715 z m 2.44708762,7.6096 c -0.6955798,0.014 -1.3995039,0.2905 -1.95635102,0.8473 -1.37288118,1.3729 -0.81520739,3.8556 1.01743372,4.5279 0.5357628,0.1965 1.3592615,0.1989 1.9334555,0.01 1.5408014,-0.5249 2.2570782,-2.3462 1.5179795,-3.8537 -0.4964945,-1.0129 -1.4957961,-1.546 -2.5125177,-1.5246 z"
       id="path3151"
       inkscape:connector-curvature="0" />
  </g>
</svg>
